Patient4_TMGait_0pt6_02_left_35_GRF.mot
version=1
nRows=39
nColumns=19
inDegrees=no
endheader
time	F1x	F1y	F1z	M1x	M1y	M1z	F2x	F2y	F2z	M2x	M2y	M2z	EC1x	EC1y	EC1z	EC2x	EC2y	EC2z
42.72	3.4146	1.3845	-10.8178	1.1741	10.4777	-7.5351	-38.2907	748.0353	-63.367	297.5861	84.4256	812.4825	-0.0592	0.0182	-0.0073	-0.0462	0.0165	0.9585
42.7319	2.326	1.9058	-7.2734	0.48204	7.1035	-4.0105	-34.8166	747.1263	-62.4999	297.0451	81.2105	809.8239	-0.0592	0.0182	-0.0073	-0.0462	0.0165	0.9585
42.7439	1.3696	2.364	-4.2593	-0.1277	4.1972	-0.99577	-31.1987	746.4706	-61.6491	296.6016	77.9973	806.6767	-0.0592	0.0182	-0.0073	-0.0462	0.0165	0.9585
42.7558	0.57787	2.7448	-1.9461	-0.61331	1.9302	1.356	-27.5917	746.2967	-60.8241	296.3545	74.9054	803.3367	-0.0592	0.0182	-0.0073	-0.0462	0.0165	0.9585
42.7677	0.0083143	3.0375	-0.34116	-0.96782	0.33115	3.0033	-24.0764	746.7365	-60.0337	296.3616	71.9918	800.0541	-0.0592	0.0182	-0.0073	-0.0462	0.0165	0.9585
42.7796	-0.40606	3.2532	0.6627	-1.2044	-0.70477	4.0708	-20.6692	747.7647	-59.2582	296.6141	69.2423	796.9203	-0.0592	0.0182	-0.0073	-0.0462	0.0165	0.9585
42.7916	-0.67231	3.3684	1.2005	-1.3352	-1.2953	4.6259	-17.3756	749.2157	-58.4704	297.0401	66.6135	793.89	-0.0592	0.0182	-0.0073	-0.0462	0.0165	0.9585
42.8035	-0.86942	3.3772	1.4231	-1.3732	-1.5913	4.8069	-14.1527	750.8017	-57.6662	297.518	64.066	790.7649	-0.0592	0.0182	-0.0073	-0.0462	0.0165	0.9585
42.8154	-0.99416	3.2123	1.4497	-1.3145	-1.7	4.6107	-10.9693	752.1899	-56.829	297.9102	61.5502	787.2846	-0.0592	0.0182	-0.0073	-0.0462	0.0165	0.9585
42.8274	-1.1169	2.8253	1.3796	-1.1523	-1.7244	4.072	-7.7625	753.0778	-55.9826	298.0908	59.0481	783.1953	-0.0592	0.0182	-0.0073	-0.0462	0.0165	0.9585
42.8393	-1.2007	2.1143	1.2758	-0.86454	-1.708	3.1046	-4.4988	753.2574	-55.117	297.9747	56.5243	778.337	-0.0592	0.0182	-0.0073	-0.0462	0.0165	0.9585
42.8512	-1.2809	1.0065	1.1774	-0.43161	-1.688	1.6796	-1.1671	752.636	-54.2627	297.5236	53.9927	772.6605	-0.0592	0.0182	-0.0073	-0.0462	0.0165	0.9585
42.8631	-1.2961	-0.56668	1.0984	0.16221	-1.6563	-0.28571	2.2109	751.2304	-53.4306	296.7436	51.4654	766.2378	-0.0592	0.0182	-0.0073	-0.0462	0.0165	0.9585
42.8751	-1.2139	-2.5865	1.0228	0.90641	-1.5725	-2.7325	5.573	749.1117	-52.6725	295.6626	49.0126	759.1952	-0.0592	0.0182	-0.0073	-0.0462	0.0165	0.9585
42.887	-0.91336	-4.9138	0.9155	1.7472	-1.3514	-5.5141	8.8363	746.4111	-52.0419	294.3306	46.7211	751.7066	-0.0592	0.0182	-0.0073	-0.0462	0.0165	0.9585
42.8989	-0.29921	-7.1822	0.7167	2.5529	-0.88577	-8.1976	11.899	743.3085	-51.6192	292.8145	44.707	743.9823	-0.0592	0.0182	-0.0073	-0.0462	0.0165	0.9585
42.9109	0.80509	-8.7436	0.35251	3.0896	-0.037724	-10.0377	14.6918	740.0143	-51.4877	291.194	43.077	736.2453	-0.0592	0.0182	-0.0073	-0.0462	0.0165	0.9585
42.9228	2.5142	-8.5585	-0.2558	2.9852	1.3263	-9.81	17.1951	736.7589	-51.719	289.5569	41.9055	728.7316	-0.0592	0.0182	-0.0073	-0.0462	0.0165	0.9585
42.9347	4.9267	-5.1826	-1.1798	1.7199	3.3165	-5.8132	19.4691	733.6886	-52.3503	287.967	41.2072	721.5675	-0.0592	0.0182	-0.0073	-0.0462	0.0165	0.9585
42.9466	8.0094	3.2501	-2.4531	-1.3717	5.9578	4.1711	21.6248	730.7834	-53.3597	286.4273	40.924	714.7136	-0.0592	0.0182	-0.0073	-0.0462	0.0165	0.9585
42.9586	11.533	18.8717	-4.0591	-7.0444	9.1411	22.6801	23.8209	727.7322	-54.6419	284.8331	40.9035	707.8306	-0.0592	0.0182	-0.0073	-0.0462	0.0165	0.9585
42.9705	14.945	43.7647	-5.8576	-16.0263	12.5036	52.2012	26.1718	723.8677	-55.9897	282.9398	40.9108	700.267	-0.0592	0.0182	-0.0073	-0.0462	0.0165	0.9585
42.9824	17.2672	79.3694	-7.5546	-28.8092	15.3359	94.4734	28.7507	718.06	-57.1184	280.3302	40.6598	690.9457	-0.0592	0.0182	-0.0073	-0.0462	0.0165	0.9585
42.9944	17.0148	125.6099	-8.5967	-45.3374	16.4571	149.4453	31.5108	708.8054	-57.6648	276.4412	39.8378	678.4896	-0.0592	0.0182	-0.0073	-0.0462	0.0165	0.9585
43.0063	12.7967	180.3178	-8.3049	-64.7942	14.5663	214.5884	34.3438	694.3335	-57.2668	270.6077	38.1687	661.3	-0.0592	0.0182	-0.0073	-0.0462	0.0165	0.9585
43.0182	4.6469	238.9363	-5.8884	-85.4986	8.7332	284.4592	37.012	672.9487	-55.6018	262.1832	35.4622	637.9001	-0.0592	0.0182	-0.0073	-0.0462	0.0165	0.9585
43.0301	-5.3326	294.9962	-0.60273	-105.1109	-1.1105	351.1541	39.2663	643.3024	-52.5278	250.6478	31.7061	607.1179	-0.0592	0.0182	-0.0073	-0.0462	0.0165	0.9585
43.0421	-14.7814	343.2813	7.0549	-121.8108	-13.4539	408.0924	40.8105	604.7731	-48.1207	235.7443	27.0921	568.471	-0.0592	0.0182	-0.0073	-0.0462	0.0165	0.9585
43.054	-22.4255	382.6189	15.6892	-135.2575	-26.2013	453.5882	41.4223	557.6855	-42.6979	217.5622	21.9963	522.3262	-0.0592	0.0182	-0.0073	-0.0462	0.0165	0.9585
43.0659	-27.7504	415.1785	24.2129	-146.294	-37.8705	490.1467	40.9442	503.2387	-36.7594	196.5222	16.9146	469.8426	-0.0592	0.0182	-0.0073	-0.0462	0.0165	0.9585
43.0779	-30.7641	444.1776	31.4309	-156.1467	-47.1272	521.6377	39.3303	443.2904	-30.7854	173.3074	12.2773	412.7536	-0.0592	0.0182	-0.0073	-0.0462	0.0165	0.9585
43.0898	-31.7372	472.4313	36.9726	-165.85	-53.6261	551.4819	36.5796	380.111	-25.1294	148.7776	8.3804	353.1491	-0.0592	0.0182	-0.0073	-0.0462	0.0165	0.9585
43.1017	-30.998	501.6651	40.621	-176.0297	-57.3	581.7388	32.7104	316.185	-19.9754	123.8969	5.3606	293.2855	-0.0592	0.0182	-0.0073	-0.0462	0.0165	0.9585
43.1136	-29.0042	532.6654	42.8872	-186.9197	-58.9004	613.4183	27.8488	254.0962	-15.4174	99.6783	3.2383	235.4828	-0.0592	0.0182	-0.0073	-0.0462	0.0165	0.9585
43.1256	-26.1826	565.6062	44.3272	-198.514	-59.2561	646.787	22.2942	196.3672	-11.5178	77.1142	1.9463	181.9845	-0.0592	0.0182	-0.0073	-0.0462	0.0165	0.9585
43.1375	-22.969	600.1796	45.6666	-210.6224	-59.3452	681.6562	16.555	145.1623	-8.3161	57.0618	1.3227	134.6831	-0.0592	0.0182	-0.0073	-0.0462	0.0165	0.9585
43.1494	-19.7146	635.6818	47.412	-222.9359	-59.864	717.3131	11.2177	101.9544	-5.809	40.1062	1.1386	94.8492	-0.0592	0.0182	-0.0073	-0.0462	0.0165	0.9585
43.1614	-16.7733	670.9928	49.8731	-235.0204	-61.2698	752.6129	6.7511	67.2666	-3.9188	26.4706	1.1492	62.8888	-0.0592	0.0182	-0.0073	-0.0462	0.0165	0.9585
43.1733	-14.34	704.7404	53.1432	-246.3869	-63.7178	786.0839	3.3472	40.8364	-2.5232	16.0689	1.1803	38.5315	-0.0592	0.0182	-0.0073	-0.0462	0.0165	0.9585
